<?xml version="1.0" encoding="UTF-8"?>
<svg xmlns="http://www.w3.org/2000/svg" xmlns:xlink="http://www.w3.org/1999/xlink" width="64pt" height="64pt" viewBox="0 0 64 64" version="1.1">
<g id="surface1">
<path style=" stroke:none;fill-rule:nonzero;fill:rgb(13.333333%,15.294118%,17.647059%);fill-opacity:1;" d="M 2.5 0 L 61.5 0 C 62.878906 0 64 1.121094 64 2.5 L 64 61.5 C 64 62.878906 62.878906 64 61.5 64 L 2.5 64 C 1.121094 64 0 62.878906 0 61.5 L 0 2.5 C 0 1.121094 1.121094 0 2.5 0 Z M 2.5 0 "/>
<path style=" stroke:none;fill-rule:nonzero;fill:rgb(100%,100%,100%);fill-opacity:1;" d="M 6.242188 15.113281 C 13.621094 21.359375 26.566406 32.351562 30.371094 35.78125 C 30.882812 36.242188 31.429688 36.480469 32 36.480469 C 32.566406 36.480469 33.113281 36.246094 33.625 35.785156 C 37.433594 32.355469 50.378906 21.359375 57.757812 15.113281 C 58.21875 14.722656 58.289062 14.039062 57.914062 13.566406 C 57.054688 12.46875 55.773438 11.839844 54.398438 11.839844 L 9.601562 11.839844 C 8.226562 11.839844 6.945312 12.46875 6.085938 13.566406 C 5.710938 14.039062 5.78125 14.722656 6.242188 15.113281 Z M 6.242188 15.113281 "/>
<path style=" stroke:none;fill-rule:nonzero;fill:rgb(100%,100%,100%);fill-opacity:1;" d="M 58.230469 18.496094 C 57.832031 18.3125 57.367188 18.378906 57.035156 18.660156 C 48.855469 25.597656 38.410156 34.488281 35.125 37.449219 C 33.28125 39.113281 30.722656 39.113281 28.871094 37.445312 C 25.371094 34.289062 13.644531 24.320312 6.964844 18.660156 C 6.632812 18.378906 6.164062 18.316406 5.769531 18.496094 C 5.375 18.679688 5.121094 19.078125 5.121094 19.515625 L 5.121094 47.679688 C 5.121094 50.152344 7.128906 52.160156 9.601562 52.160156 L 54.398438 52.160156 C 56.871094 52.160156 58.878906 50.152344 58.878906 47.679688 L 58.878906 19.515625 C 58.878906 19.078125 58.625 18.679688 58.230469 18.496094 Z M 58.230469 18.496094 "/>
</g>
</svg>
