<?xml version="1.0" encoding="UTF-8"?>
<svg xmlns="http://www.w3.org/2000/svg" xmlns:xlink="http://www.w3.org/1999/xlink" width="64pt" height="64pt" viewBox="0 0 64 64" version="1.1">
<g id="surface1">
<path style=" stroke:none;fill-rule:nonzero;fill:rgb(13.333333%,15.294118%,17.647059%);fill-opacity:1;" d="M 60.46875 0 L 3.53125 0 C 1.578125 0 0 1.582031 0 3.53125 L 0 60.46875 C 0 62.421875 1.582031 64 3.53125 64 L 60.46875 64 C 62.417969 64 64 62.417969 64 60.46875 L 64 3.53125 C 64 1.578125 62.417969 0 60.46875 0 Z M 60.46875 0 "/>
<path style=" stroke:none;fill-rule:nonzero;fill:rgb(100%,100%,100%);fill-opacity:1;" d="M 44.1875 64 L 44.1875 39.25 L 52.53125 39.25 L 53.78125 29.5625 L 44.1875 29.5625 L 44.1875 23.390625 C 44.1875 20.59375 44.964844 18.6875 48.976562 18.6875 L 54.0625 18.6875 L 54.0625 10.046875 C 53.179688 9.929688 50.140625 9.664062 46.609375 9.664062 C 39.234375 9.664062 34.1875 14.164062 34.1875 22.433594 L 34.1875 29.5625 L 25.875 29.5625 L 25.875 39.25 L 34.1875 39.25 L 34.1875 64 Z M 44.1875 64 "/>
</g>
</svg>
