<?xml version="1.0" encoding="UTF-8"?>
<svg xmlns="http://www.w3.org/2000/svg" xmlns:xlink="http://www.w3.org/1999/xlink" width="64pt" height="64pt" viewBox="0 0 64 64" version="1.1">
<g id="surface1">
<path style=" stroke:none;fill-rule:nonzero;fill:rgb(13.333333%,15.294118%,17.647059%);fill-opacity:1;" d="M 2.5 0 L 61.5 0 C 62.878906 0 64 1.121094 64 2.5 L 64 61.5 C 64 62.878906 62.878906 64 61.5 64 L 2.5 64 C 1.121094 64 0 62.878906 0 61.5 L 0 2.5 C 0 1.121094 1.121094 0 2.5 0 Z M 2.5 0 "/>
<path style=" stroke:none;fill-rule:nonzero;fill:rgb(100%,100%,100%);fill-opacity:1;" d="M 31.996094 5.992188 C 17.332031 5.992188 5.441406 17.929688 5.441406 32.660156 C 5.441406 44.4375 13.050781 54.433594 23.605469 57.960938 C 24.933594 58.207031 25.417969 57.382812 25.417969 56.675781 C 25.417969 56.042969 25.398438 54.367188 25.382812 52.140625 C 17.996094 53.75 16.4375 48.566406 16.4375 48.566406 C 15.230469 45.484375 13.488281 44.664062 13.488281 44.664062 C 11.074219 43.011719 13.667969 43.042969 13.667969 43.042969 C 16.332031 43.234375 17.734375 45.792969 17.734375 45.792969 C 20.105469 49.867188 23.953125 48.691406 25.464844 48.007812 C 25.707031 46.285156 26.390625 45.109375 27.152344 44.441406 C 21.257812 43.769531 15.054688 41.480469 15.054688 31.265625 C 15.054688 28.351562 16.089844 25.972656 17.789062 24.105469 C 17.515625 23.433594 16.605469 20.71875 18.050781 17.050781 C 18.050781 17.050781 20.28125 16.335938 25.351562 19.785156 C 27.472656 19.191406 29.742188 18.898438 32.003906 18.886719 C 34.257812 18.902344 36.53125 19.191406 38.652344 19.789062 C 43.722656 16.339844 45.949219 17.054688 45.949219 17.054688 C 47.398438 20.726562 46.488281 23.4375 46.214844 24.109375 C 47.917969 25.976562 48.945312 28.355469 48.945312 31.269531 C 48.945312 41.511719 42.738281 43.765625 36.820312 44.425781 C 37.773438 45.25 38.625 46.875 38.625 49.363281 C 38.625 52.925781 38.589844 55.804688 38.589844 56.675781 C 38.589844 57.390625 39.066406 58.21875 40.417969 57.957031 C 50.957031 54.425781 58.558594 44.433594 58.558594 32.660156 C 58.558594 17.929688 46.667969 5.992188 31.996094 5.992188 Z M 31.996094 5.992188 "/>
</g>
</svg>
