<?xml version="1.0" encoding="UTF-8"?>
<svg xmlns="http://www.w3.org/2000/svg" xmlns:xlink="http://www.w3.org/1999/xlink" width="64pt" height="64pt" viewBox="0 0 64 64" version="1.1">
<g id="surface1">
<rect x="0" y="0" width="64" height="64" style="fill:rgb(13.333333%,15.294118%,17.647059%);fill-opacity:1;stroke:none;"/>
<path style=" stroke:none;fill-rule:nonzero;fill:rgb(100%,100%,100%);fill-opacity:1;" d="M 15.0625 9.71875 C 17.992188 9.722656 20.410156 12.144531 20.40625 15.089844 C 20.398438 18.175781 17.839844 20.5 15.027344 20.433594 C 12.175781 20.488281 9.667969 18.109375 9.667969 15.070312 C 9.667969 12.121094 12.09375 9.71875 15.0625 9.71875 Z M 15.0625 9.71875 "/>
<path style=" stroke:none;fill-rule:nonzero;fill:rgb(100%,100%,100%);fill-opacity:1;" d="M 18.175781 54.273438 L 11.894531 54.273438 C 11.082031 54.273438 10.421875 53.613281 10.421875 52.796875 L 10.421875 26.003906 C 10.421875 25.191406 11.082031 24.53125 11.894531 24.53125 L 18.175781 24.53125 C 18.992188 24.53125 19.652344 25.191406 19.652344 26.003906 L 19.652344 52.796875 C 19.652344 53.613281 18.992188 54.273438 18.175781 54.273438 Z M 18.175781 54.273438 "/>
<path style=" stroke:none;fill-rule:nonzero;fill:rgb(100%,100%,100%);fill-opacity:1;" d="M 54.332031 33.941406 C 54.332031 28.324219 49.777344 23.769531 44.160156 23.769531 L 42.550781 23.769531 C 39.476562 23.769531 36.761719 25.304688 35.128906 27.648438 C 34.953125 27.902344 34.785156 28.167969 34.636719 28.441406 C 34.582031 28.433594 34.550781 28.429688 34.550781 28.429688 L 34.550781 25.140625 C 34.550781 24.804688 34.277344 24.53125 33.9375 24.53125 L 26.101562 24.53125 C 25.765625 24.53125 25.492188 24.804688 25.492188 25.140625 L 25.492188 53.660156 C 25.492188 54 25.765625 54.273438 26.101562 54.273438 L 34.109375 54.277344 C 34.449219 54.277344 34.722656 54 34.722656 53.664062 L 34.722656 37.1875 C 34.722656 34.339844 36.992188 31.972656 39.839844 31.941406 C 41.296875 31.925781 42.613281 32.507812 43.5625 33.457031 C 44.5 34.394531 45.078125 35.691406 45.078125 37.121094 L 45.078125 53.664062 C 45.078125 54.003906 45.355469 54.277344 45.691406 54.277344 L 53.71875 54.28125 C 54.058594 54.28125 54.332031 54.003906 54.332031 53.667969 Z M 54.332031 33.941406 "/>
</g>
</svg>
